<svg xmlns="http://www.w3.org/2000/svg" width="368" height="90.79" viewBox="0 0 368 90.79" class="axsvgicon axsvgicon-logo-footer" aria-hidden="true"><path d="M192.86,39.37c1.77.55,4.5.22,5.32-1.7s.73-4.76-1.35-5.79A4.94,4.94,0,0,0,191,33.45a3.74,3.74,0,0,0,1.81,5.92" fill="#444"></path><path d="M367,61.22a2.55,2.55,0,0,0-1.88-.51,8.62,8.62,0,0,1-5.09-.58,22.34,22.34,0,0,0,6-7.6c1.25-2.49,2.52-6,.8-8.58-1.58-2.38-5.24-3-7.87-2.54-3.28.63-6,3.12-7.9,5.77-2.61,4-3.21,8.87-.33,13a5.39,5.39,0,0,1-3.1.59c-.48-.06-1-.08-1.46-.14,1.21-1.24,1.36-4,1.08-5.56-.49-2.74-2.49-4.9-4.25-6.92-.74-.85-1.5-1.69-2.3-2.48s-.13-2.48-.23-3.69c-.31-2.26-2.42-3.47-4.56-3.57-2.45-.12-4,2.11-3.73,4.43.17,1.52,2.66,2.82,2.21,4.1-.62,1.76-1.26,3.51-1.89,5.26-.84,2.33-1.71,4.7-3.89,6.11.64-4.94-2.73-9.12-6.3-12.1-.27-.11,0-3.3-.25-4a4.5,4.5,0,0,0-4.21-2.66,4.07,4.07,0,0,0-3.55,3.15,4,4,0,0,0,.13,2.4c.18.47,1.38,1.88,1.31,2.21a29.53,29.53,0,0,1-3.28,9.43c-1.72,2.87-4.74,6.82-8.13,3.55,2.91-2.39,5.42-5.23,6.38-9,1-4,.27-8.47-4.52-9-4.2-.48-8.9,1.93-11.3,5.34-2.54,3.6-2.35,9-.09,12.66-1.72.84-5.7,1.54-6.68-.81-1.07-2.58.92-6.24,1.35-8.79.4-2.37.72-5.82-1.3-7.61-2.22-2-6-.55-8.13.79,3.12-5.81,6.34-13,4.27-19.67a5.29,5.29,0,0,0-1.94-3.11c-1.37-.81-3.45-.52-4.86,0-2.54,1-4.61,4.28-5.55,6.71A24.36,24.36,0,0,0,270.67,37c0,2,.22,4,.39,6q.15,1.71.31,3.42a10.16,10.16,0,0,1,.14,3.44c-1.47,5.28-4.69,10.89-11,10A6.53,6.53,0,0,1,255,52.55a6.76,6.76,0,0,1,2.5-4.89c.87-.61,4.19-1.28,3.73.69-.18.79-.9,1.39-.83,2.22s.89,1.46,1.57,1.86c1.19.69,3.39,1.09,4.39-.22.85-1.11.9-3.05,1-4.37a5.14,5.14,0,0,0-1.13-4.24c-2.33-2.41-7-2.66-10-1.6-3.37,1.21-5.94,4.37-7.38,7.56a13,13,0,0,0-1.12,5.58,9.71,9.71,0,0,0,.52,3,8,8,0,0,0,.61,1.33,4.16,4.16,0,0,1-1.17.88c-1,.49-2.94.42-3.37-.83a10.64,10.64,0,0,1,0-4.72l1-4.87a11,11,0,0,0,.38-3.88c-.27-1.81-2.15-2.18-3.74-2.21-3.78-.09-4,3.06-4.37,6.12s.15,6.55-1.94,9c-1.88,2.21-3.63-.11-3.75-2.14-.2-3.37.88-6.66,1.36-10,.24-1.68.87-3.46.5-5.16s-1.94-2.47-3.47-2.79c-4-.86-4.25,4.2-4.53,6.82s-.48,5.47-.44,8.22a23.36,23.36,0,0,0,.63,5.2c.11.46.43.74-.1.93a14.6,14.6,0,0,1-1.49.45,4.14,4.14,0,0,1-2,.12c-2-.58-1.55-4.54-1.49-6.17.12-3.05.52-6.11.85-9.15.38-3.47.72-7,1.4-10.38.49-2.5,2.19-5.15.06-7.33-1.06-1.09-3.19-1.92-4.61-1-1.22.77-1.43,2.46-1.67,3.76-.77,4.07-1.29,8.19-1.68,12.31C208,40.26,201,47.61,200.14,54.26a11.93,11.93,0,0,0,.62,5.59c.61,1.69-3,1.09-3.82.61-1.34-.81-1.33-2.63-1.16-4,.29-2.1.64-4.19,1.09-6.26.31-1.33.92-2.82.76-4.2-.3-2.64-5.54-3.75-6.85-1.33-.59,1.1-.48,2.62-.55,3.83-.08,1.46-.13,2.92-.14,4.38q0,1.36,0,2.73c0,.77.29,1.95-.14,2.6A4.06,4.06,0,0,1,186.24,60c-2.27-.29-1.91-3.11-1.58-4.7.58-2.81,1.53-5.48,1.47-8.4,0-2-.58-4.38-2.67-5.14-2.58-.94-5.6.54-7.62,2.06A37.05,37.05,0,0,0,179.76,32c.34-2.87.2-7.15-2-9.31-1.27-1.23-3.44-.9-5-.42s-2.71,2-3.61,3.27a17,17,0,0,0-3,9,61.57,61.57,0,0,0,.34,9.92q.23,2.54.48,5.08c.19,2-1.34,4-2.6,5.52-2.17,2.64-5.63,5.4-9.26,4.15C151,57.77,150,52.85,152,49.34c.63-1.15,3.9-4.91,5.35-2.88,1.25,1.74-2.66,4.7-.56,5.79a3.72,3.72,0,0,0,3.48.15c2.18-1,3.06-4.33,2.88-6.54-.24-2.9-2.63-4.51-5.33-4.81-6.13-.68-11.58,4.1-13.14,9.86a14.81,14.81,0,0,0-.6,4.67,11.32,11.32,0,0,0,.36,2.23,8.71,8.71,0,0,0,.32,1c.27.7,0,.67-.67,1-2.13.93-5.27.61-5.13-2.22s2.24-5.52,1.35-8.45-4-4.93-6.7-6.17c-1.12-.48-1.3-.37-1.47-1.62a5.28,5.28,0,0,0-1.5-3.39,4.63,4.63,0,0,0-3.9-1c-1.47.45-2.27,2.53-2.42,3.93a4.38,4.38,0,0,0,1.45,3.65c.47.44,1.36.81,1.34,1.46,0,.93-.12,1.86-.22,2.79-.31,2.87-.48,6.93-2.37,9.28-1.33,1.66-4.67,2-4.78-.6-.13-3,.84-6.12,1.63-9,.83-2,2.46-5.32.18-7a7.6,7.6,0,0,0-4.1-1.21c-1.49,0-1.92,1-2,2.37-3.37-2.32-8.21-1.92-11.5.29a15.54,15.54,0,0,0-6.79,11.32c-.34,4.35,1.05,9.7,5.37,11.66s9.2-.25,11.76-3.72c2.71,3.72,9.22,4.33,12.7,1.42C131.31,60,131.59,53.39,132,48.2c1.66.88,3.07,2,2.75,4.08s-1.56,3.8-2,5.77c-1.17,4.75,4.68,7.42,8.44,7.34a9.59,9.59,0,0,0,6.17-2.17c.48-.41.48-.77,1.09-.47a10.46,10.46,0,0,0,1.76.66,19.06,19.06,0,0,0,4.18.61c4.26.22,9.27-.86,12.11-4.31-.48,2-1.28,4.9.32,6.61s5.14,2.11,5.65-.59c.35-2.12.67-4.24,1-6.36a38.64,38.64,0,0,1,1.68-6.73,8.15,8.15,0,0,1,2.41-4c1.06-.77,3-1.12,2.61.74a42,42,0,0,0-1.35,6.07c-.17,2-.41,4.42.6,6.29a6.55,6.55,0,0,0,5.06,3.06l.23.05c2.42.08,5.22.13,7-1.75A6.87,6.87,0,0,0,197.1,66a10.22,10.22,0,0,0,3.73-.41,8.22,8.22,0,0,0,1.63-.71c.63-.36.86-.93,1.46-.4,4,3.34,9.84,2.84,12.53-1.8a7.33,7.33,0,0,0,5.65,2.59,11.57,11.57,0,0,0,3.39-.5c.79-.22,2.5-1.31,3.06-.83,3,2.58,9.13,1.15,11.16-2.08.14,2.48,2.94,3.38,5,3.49,2.67.15,5.72-.39,7.17-2.92a18.56,18.56,0,0,0,8.7,2.65,13.43,13.43,0,0,0,9.54-3.75c-.39,1.93-.85,4,1,5.29,1.3.94,3.69,2,4.21-.29s.83-4.36,1.3-6.52c.71-3.25,1.3-8.46,4.29-10.56A3.58,3.58,0,0,1,283,48.7c1,.07.52,1.26.36,1.84a26.71,26.71,0,0,0-1.28,5.55c-.21,2.07-.5,4.42.55,6.33a6.63,6.63,0,0,0,5.18,3,1.83,1.83,0,0,0,.46.08,20,20,0,0,0,7-.77c.53-.16,1-.34,1.56-.54,1-.38,1-.44,1.81.15a17.51,17.51,0,0,0,3.69,1.9,10.43,10.43,0,0,0,7.36.49A12.83,12.83,0,0,0,315,62.2l.52-.73a46.8,46.8,0,0,0,4-10.61c1.1,1.69,2.5,3.46,2.82,5.5a3.71,3.71,0,0,1-.45,2.53c-.31.51-2.22-.15-3,0a3.07,3.07,0,0,0-2,4.44c.81,1.49,2.37,1.88,4,1.86a16.41,16.41,0,0,0,3.43-.48c1-.51,2.41-.35,3.54-.55a9.71,9.71,0,0,0,5-2.36c2.88-2.71,4.28-6.87,5.64-10.49,1.8,2.5,2.67,5,1.2,8-1.3-.45-3.67-.19-4.25,1.32s.13,4.19,1.67,4.84,3.51.25,5-.12c1.65-.41,3.69.52,5.46.6a16,16,0,0,0,6.1-1.75c.54-.29.44-.46,1-.08a13.87,13.87,0,0,0,1.72,1,13.42,13.42,0,0,0,3.25,1.08,15,15,0,0,0,6.76-.24c.92-.25,1.47-.54,1.55-1.56a3.9,3.9,0,0,0-1-3.14m-252.93-13c-.76,3.16-1.54,6.59-3.51,9.25-.84,1.13-2.18,2.6-3.63,2.83a2.59,2.59,0,0,1-2.9-2.16,12,12,0,0,1,2.23-9.25,5.81,5.81,0,0,1,3.21-2,7.55,7.55,0,0,1,2.82-.08,7.39,7.39,0,0,1,1.49.39c.7.27.44.42.3,1m57.24-6.74A32.64,32.64,0,0,1,172,33.9c.24-1.33.41-3,1.35-4.06.3-.34,1.15-.85,1.56-.38.64.76-.11,2.68-.33,3.45a78,78,0,0,1-3.22,8.57m43.44,7.78a35.11,35.11,0,0,1-1.29,8.26c-.71,2.07-3.95,5-5.68,2.17-1.51-2.51-.35-5.61.74-8a6.4,6.4,0,0,1,6.31-4q0,.79-.08,1.57M276,40.21a33.87,33.87,0,0,1,.8-8.1c.25-1.23.47-2.87,1.52-3.72.33-.27,1.18-.61,1.49-.13.56.87-.19,2.68-.46,3.52A78.45,78.45,0,0,1,276,40.21m25.69,16.18-.95.7c-2.8-2.18-1.31-7.77,1.51-9.27,2-.86,3.11,1.44,3,3.15-.09,2.24-1.88,4.18-3.6,5.42m54.54.84a7.64,7.64,0,0,1-.58-6.12c.55-1.92,2.2-4.46,4.49-4.31s1.25,3.42.64,4.64a18.32,18.32,0,0,1-4.55,5.79" fill="#444"></path><path d="M61.93,12.12C65.59,15,67.09,19.31,67,23.83s-.9,9.32-4.77,12A49.08,49.08,0,0,1,57.47,39c-.7.43-3.33,1.38-3.33,2.42l-.74,3.24L53,46.29c-.18.78-1.49.78-2.17,1.05q-.08-1.87-.16-3.74a2.61,2.61,0,0,0-.47-1.71A1.49,1.49,0,0,0,47.81,43l.12,3.32q0,.82.06,1.64c0,.29-3.71.49-4.12.49q0-1.93.1-3.86a5,5,0,0,0-.06-1.6c-.48-1.5-2.43-.93-2.7.39q-.09,2.53-.19,5.07A27.88,27.88,0,0,1,37.67,48q0-2,.05-4a4.65,4.65,0,0,0,0-1.43A1.39,1.39,0,0,0,35,43q-.09,2.12-.19,4.24a10,10,0,0,1-1.71-.7c-.19-1.54,0-3.78-.71-5.18-.59-1.19-3.34-1.42-4.49-1.95a27.49,27.49,0,0,1-5.57-3.58c-5-4.16-7.33-13.92-4-19.67C22.11,9.7,32.4,8.3,39.15,7.83c7.47-.52,16.49-.35,22.79,4.3" fill="#fff"></path><path d="M74.54,25.11c.2-7.22-2-14.24-7.94-18.71C59.43,1,51-.09,42.24,0c-8.57.09-18,1.68-25.15,6.73C11.31,10.82,8.94,17.3,9.55,24.22a44.78,44.78,0,0,0,1.14,7.16A16.76,16.76,0,0,1,7.77,33a20.62,20.62,0,0,0-3.36,2.91l-.13.19a.22.22,0,0,0-.19.06c-.69,1.24-1.93,2.22-2.6,3.55v.06c-2.42,3.09-1.82,8.42,1.14,11l6.59,5.45c1,1,2.09,2,3.12,3.06,1.76,1.75,2.09,4.27,3.53,6.25l-1.9.76C8.34,67.79,3.12,73.61,3.34,79.52a11.61,11.61,0,0,0,1.9,5.83c1.54,3.11,5.63,5.16,9.25,5.38C19,91,24,90,28.61,88.9c2.16-.46,4.29-1.13,6.4-1.77,1.61-.11,5.65-2.67,7.92-1.9,3.46.69,6.82,1.54,10.26,2.28A37.94,37.94,0,0,0,59.53,89c5.38,1,11.5,2.42,16.9.85a11.67,11.67,0,0,0,8.31-11.06,11.14,11.14,0,0,0-3.93-8.68,22.72,22.72,0,0,0-7.22-4.18c-1.13-.37-2.29-.74-3.42-1.14a26.92,26.92,0,0,0,2-3.74,6.94,6.94,0,0,1,1.14-2.59v-.06c1.25-1.37,2.49-2.75,3.8-4.06l6.18-5.68c2-1.87,2.68-5.23,2.08-7.84a11.45,11.45,0,0,0-2.14-4.3c-.77-1-1.82-2.64-3-3.21-1-.84-2.5-1.62-3.42-2.53a25.81,25.81,0,0,1-2.6-1.39c-.05-1.27.26-2.87.32-4.25m-12.6-13C65.59,15,67.09,19.31,67,23.83s-.9,9.32-4.77,12A49.08,49.08,0,0,1,57.47,39c-.7.43-3.33,1.38-3.33,2.42l-.74,3.24L53,46.29c-.18.78-1.49.78-2.17,1.05q-.08-1.87-.16-3.74a2.61,2.61,0,0,0-.47-1.71A1.49,1.49,0,0,0,47.81,43l.12,3.32q0,.82.06,1.64c0,.29-3.71.49-4.12.49q0-1.93.1-3.86a5,5,0,0,0-.06-1.6c-.48-1.5-2.43-.93-2.7.39q-.09,2.53-.19,5.07A27.88,27.88,0,0,1,37.67,48q0-2,.05-4a4.65,4.65,0,0,0,0-1.43A1.39,1.39,0,0,0,35,43q-.09,2.12-.19,4.24a10,10,0,0,1-1.71-.7c-.19-1.54,0-3.78-.71-5.18-.59-1.19-3.34-1.42-4.49-1.95a27.49,27.49,0,0,1-5.57-3.58c-5-4.16-7.33-13.92-4-19.67C22.11,9.7,32.4,8.3,39.15,7.83c7.47-.52,16.49-.35,22.79,4.3" fill="#444"></path><path d="M74.54,25.11c.2-7.22-2-14.24-7.94-18.71C59.43,1,51-.09,42.24,0c-8.57.09-18,1.68-25.15,6.73C11.31,10.82,8.94,17.3,9.55,24.22a44.78,44.78,0,0,0,1.14,7.16A16.76,16.76,0,0,1,7.77,33a20.62,20.62,0,0,0-3.36,2.91l-.13.19a.22.22,0,0,0-.19.06c-.69,1.24-1.93,2.22-2.6,3.55v.06c-2.42,3.09-1.82,8.42,1.14,11l6.59,5.45c1,1,2.09,2,3.12,3.06,1.76,1.75,2.09,4.27,3.53,6.25l-1.9.76C8.34,67.79,3.12,73.61,3.34,79.52a11.61,11.61,0,0,0,1.9,5.83c1.54,3.11,5.63,5.16,9.25,5.38C19,91,24,90,28.61,88.9c2.16-.46,4.29-1.13,6.4-1.77,1.61-.11,5.65-2.67,7.92-1.9,3.46.69,6.82,1.54,10.26,2.28A37.94,37.94,0,0,0,59.53,89c5.38,1,11.5,2.42,16.9.85a11.67,11.67,0,0,0,8.31-11.06,11.14,11.14,0,0,0-3.93-8.68,22.72,22.72,0,0,0-7.22-4.18c-1.13-.37-2.29-.74-3.42-1.14a26.92,26.92,0,0,0,2-3.74,6.94,6.94,0,0,1,1.14-2.59v-.06c1.25-1.37,2.49-2.75,3.8-4.06l6.18-5.68c2-1.87,2.68-5.23,2.08-7.84a11.45,11.45,0,0,0-2.14-4.3c-.77-1-1.82-2.64-3-3.21-1-.84-2.5-1.62-3.42-2.53a25.81,25.81,0,0,1-2.6-1.39c-.05-1.27.26-2.87.32-4.25m-12.6-13C65.59,15,67.09,19.31,67,23.83s-.9,9.32-4.77,12A49.08,49.08,0,0,1,57.47,39c-.7.43-3.33,1.38-3.33,2.42l-.74,3.24L53,46.29c-.18.78-1.49.78-2.17,1.05q-.08-1.87-.16-3.74a2.61,2.61,0,0,0-.47-1.71A1.49,1.49,0,0,0,47.81,43l.12,3.32q0,.82.06,1.64c0,.29-3.71.49-4.12.49q0-1.93.1-3.86a5,5,0,0,0-.06-1.6c-.48-1.5-2.43-.93-2.7.39q-.09,2.53-.19,5.07A27.88,27.88,0,0,1,37.67,48q0-2,.05-4a4.65,4.65,0,0,0,0-1.43A1.39,1.39,0,0,0,35,43q-.09,2.12-.19,4.24a10,10,0,0,1-1.71-.7c-.19-1.54,0-3.78-.71-5.18-.59-1.19-3.34-1.42-4.49-1.95a27.49,27.49,0,0,1-5.57-3.58c-5-4.16-7.33-13.92-4-19.67C22.11,9.7,32.4,8.3,39.15,7.83c7.47-.52,16.49-.35,22.79,4.3" fill="#444"></path><path d="M76.95,39a12.21,12.21,0,0,0,.89,1,.47.47,0,0,0,.25.44l-3.66,3.44-1.51,1.42a.87.87,0,0,0,1.18,1.29L79,42a3.33,3.33,0,0,1-.19,1.9q.19-.2-.06.19L73.33,49A20.65,20.65,0,0,0,69,44.27c-.88-.71-4.65-4-5.74-3.1-1.53,1.25,3.05,3.27,3.84,3.86a21.05,21.05,0,0,1,5,5.18l-2.54,2.66h-.06c-.06.12-.27.3-.31.44a18.8,18.8,0,0,0-2,2.72c-.63,1.17-.86,2.49-1.45,3.66-1.08,2.1-2.69,2.14-4.5,3.06a5.59,5.59,0,0,0-2.3,1.61c-.63.7-.87.29-1.74,0s-1.86-.6-2.8-.89c-3-.91-6.12-1.2-9-2.31a13.65,13.65,0,0,0,3.22-3.81,7.4,7.4,0,0,1,2.73-3.25,12.76,12.76,0,0,0,5.56-6,38.41,38.41,0,0,1,5.19-8c1.63-1.81,4.73-5.36,7.42-5.36-.78.62-6.54,5-4.37,5.77.9.32,1.88-1.3,2.42-1.82a33.57,33.57,0,0,1,4.16-3.38l1.14.57c-1,.86-6.43,5.12-5.06,6.46,1,1,5.71-4.76,6.65-5.58l1.21.95c-.88.86-6.54,5.22-5.32,6.46.85,1.27,5.89-4.51,6.59-5.2" fill="#fff"></path><path d="M76.63,74.9a5,5,0,0,1,1,6.33c-1.27,2.12-3.38,2.75-5.73,2.82-5.9.19-12.26-1.37-17.94-2.89l-3.67-1C49,79.83,49,78,48.5,76.92a26.43,26.43,0,0,0-1.58-3.27c-.51-.9-1.46-3-2.42-3.51C42.91,68,40.1,68,37.7,67.86a32.45,32.45,0,0,0-8.39.52c-.49-1.92-2.44-4.5-4.69-4.5a5.18,5.18,0,0,1-3.91-2.71C19.46,59,18.88,56.86,17,55c0-.19-.11-.32-.38-.38,0-.08,0-.12-.12-.13C16,54,14.06,52.63,14,52a21.46,21.46,0,0,1,6.54-6.64c.76-.51,2.9-1.21,2.27-2.48-.83-1.25-3,.78-3.78,1.31a23.78,23.78,0,0,0-6.42,6.67L9.74,48.48c-.92-.76-2.44-1.59-3-2.66a3.15,3.15,0,0,1-.19-1.77l3.24,2.77,1.73,1.48c1,.84,2.43-.49,1.36-1.2l-2.75-2.31c-.74-.62-3-1.82-2.5-2.76.24-.24.64-.77.89-1.08l3.59,3.19L14,45.78c.92.81,2.47-.45,1.4-1.16L9.81,39.68c1.14-1,1-1.13,2.31,0,1.59,1.36,3.11,2.8,4.59,4.28A1,1,0,0,0,18,44c.56-.82,0-1.18-.52-1.77a44.6,44.6,0,0,0-4.87-4.51c1.39-.82,1.67-.27,3,.71s2.76,2.87,4.27,3.64,1.16-1.29.5-1.92a34.26,34.26,0,0,0-4.49-3.69,2,2,0,0,1,.89.19c4.74,1.64,8.39,6.26,11.1,10.49,1.29,2,2.3,4.5,4.08,6.12s4.4,2,5.72,4.36a12.32,12.32,0,0,0,4,4.5C45.28,64.16,49,64.68,53,65.77a63,63,0,0,0,6.08,2c1.88.83,4.14,1.34,6.15,2.09,3.94,1.28,8.15,2.36,11.4,5.07" fill="#fff"></path><path d="M42,70.34c2.77,1.73,4.63,6.17,5.45,9.19-1.16-.19-2.33-.38-3.48-.63A28.93,28.93,0,0,1,36.19,77c-3.18-1.28-4.91-3.87-6.24-6.9A28.84,28.84,0,0,1,36,69.57c1.78,0,4.42-.12,6,.77" fill="#fff"></path><path d="M22.21,70c1.4-.57,2.83-1.1,4.24-1.65.15.61.37,1.18.57,1.77,2,4.7,4.43,8.18,9.69,9.88-1.2.32-2.37.69-3.55,1.08C29.55,81.92,26,83,22.31,83.66c-3.16.61-7.83,1.78-10.59-.53s-2.41-5.86.08-8.12c2.88-2.63,6.84-3.72,10.42-5.06" fill="#fff"></path><path d="M62.19,27.32a7.65,7.65,0,0,0-2.66-4.43,1.43,1.43,0,0,0-.32-.26,8.1,8.1,0,0,0-5.51-2,6.69,6.69,0,0,0-5.07,1.9c-.06.06-.13.06-.19.12a8.42,8.42,0,0,0-2,5.32,7.56,7.56,0,0,0,1.84,5.83,5.64,5.64,0,0,0,.57.64.13.13,0,0,1,.13.12,6.16,6.16,0,0,0,4.94,1.21,10.14,10.14,0,0,0,6-3.36c1.71-1.9,2.47-3.55,2.28-5.07" fill="#444"></path><path d="M25,25.42a6,6,0,0,0-.7,2.22c-.19,1.39.57,3.1,2.15,5A9.1,9.1,0,0,0,32.22,36,5.34,5.34,0,0,0,37,34.67c.19-.13.32-.38.51-.51,0-.06,0-.06.06-.06a8,8,0,0,0,1.71-5.89A8.82,8.82,0,0,0,37.54,23c-.06-.06-.12-.13-.19-.13a6.41,6.41,0,0,0-5.07-2,7.55,7.55,0,0,0-5.51,2.22A12.92,12.92,0,0,0,25,25.42" fill="#444"></path><path d="M45.59,35.81a3,3,0,0,0-2.22-.89,3,3,0,0,0-2.15.89,3.23,3.23,0,0,0-1,2.22,3.32,3.32,0,0,0,.26,1.14c2.21-1.08,4.18-1.08,5.83,0A3.32,3.32,0,0,0,46.54,38a3,3,0,0,0-1-2.22" fill="#444"></path>
</svg>
