<svg xmlns="http://www.w3.org/2000/svg" viewBox="0 0 60 60" class="axsvgicon axsvgicon-panier" aria-hidden="true"> <path d="M26.33,12.83,25.58,11a12.59,12.59,0,0,0-3.39,2.12l1.36,1.36A10.58,10.58,0,0,1,26.33,12.83Z" fill="none"></path> <path d="M20.93,17.75,19.13,17a13,13,0,0,0-1.34,4.11h2A11.06,11.06,0,0,1,20.93,17.75Z" fill="none"></path> <path d="M17.13,28.57a.3.3,0,1,1,.39-.46l0,0,1.06,1.06,1.06-1.06a.3.3,0,0,1,.42.42l-.8.8c3-.21,6.67-.37,10.77-.37s7.73.16,10.77.37l-.8-.8a.3.3,0,0,1,.42-.42l1.06,1.06,1.06-1.06a.3.3,0,1,1,.46.39l0,0-.9.91c4.32.34,7.26.78,8.42,1l.31-1.91a.34.34,0,0,0-.08-.27.59.59,0,0,0-.42-.2h-.06a119.73,119.73,0,0,0-20.22-1.54A119.76,119.76,0,0,0,9.85,28h0a.59.59,0,0,0-.42.21.34.34,0,0,0-.07.28l.42,1.88c1.3-.21,4.18-.62,8.29-.93Z" fill="none"></path> <path d="M23.28,14.76,21.91,13.4a13.21,13.21,0,0,0-2.61,3.3l1.8.74A11.19,11.19,0,0,1,23.28,14.76Z" fill="none"></path> <path d="M19.59,23a10.88,10.88,0,0,1,.11-1.51h-2A12.73,12.73,0,0,0,17.64,23v1.82l1.94-.11Z" fill="none"></path> <path d="M40.56,25.05v1.24l1.94.16V25.18Z" fill="none"></path> <path d="M13.55,48.15a.74.74,0,0,0,.76.51H46.88a.73.73,0,0,0,.78-.51l.32-2H13.12Z" fill="none"></path> <path d="M30.07,12.69c-5.36,0-9.88,4.72-9.88,10.31v3.25c2.83-.2,6.16-.34,9.88-.34s7,.14,9.88.34V23C40,17.4,35.43,12.69,30.07,12.69Z" fill="none"></path> <path d="M17.64,25.16v1.27l1.94-.16V25.05Z" fill="none"></path> <path d="M36.6,14.53,38,13.16A12.57,12.57,0,0,0,34.49,11l-.74,1.77A10.57,10.57,0,0,1,36.6,14.53Z" fill="none"></path> <path d="M39,17.37l1.8-.75a13.21,13.21,0,0,0-2.55-3.22l-1.39,1.37A11.19,11.19,0,0,1,39,17.37Z" fill="none"></path> <path d="M40.39,21.12h2A13,13,0,0,0,41,16.94l-1.8.75A11.06,11.06,0,0,1,40.39,21.12Z" fill="none"></path> <path d="M40.56,23v1.7l1.94.11V23a12.73,12.73,0,0,0-.09-1.51h-2A10.88,10.88,0,0,1,40.56,23Z" fill="none"></path> <path d="M29.91,12.08V10.14a11.68,11.68,0,0,0-4,.76l.75,1.79A9.79,9.79,0,0,1,29.91,12.08Z" fill="none"></path> <path d="M33.41,12.68l.74-1.79a11.67,11.67,0,0,0-3.9-.74v1.94A9.79,9.79,0,0,1,33.41,12.68Z" fill="none"></path> <path d="M43,30.69a.3.3,0,1,1-.39.46l0,0-1.06-1.06-1.06,1.06a.3.3,0,0,1-.42-.42l.95-.95c-3.07-.22-6.76-.38-10.92-.38s-7.85.16-10.92.38l1,1a.3.3,0,1,1-.39.46l0,0-1.06-1.06-1.06,1.06a.3.3,0,1,1-.46-.39l0,0,.85-.85c-4,.31-6.86.71-8.19.91L13,45.81H48l2.44-15c-1.14-.19-4.06-.62-8.32-1Z" fill="#ccc"></path> <path d="M51.23,27.87a1.18,1.18,0,0,0-.85-.42c-.25,0-2.89-.51-7.28-.94V23a13.48,13.48,0,0,0-1.61-6.36.15.15,0,0,0-.1-.19,13.83,13.83,0,0,0-2.8-3.53.16.16,0,0,0-.14-.12,12.43,12.43,0,0,0-16.76,0,.16.16,0,0,0-.14.12,13.83,13.83,0,0,0-2.85,3.61.18.18,0,0,0-.09.09.17.17,0,0,0,0,.09A13.47,13.47,0,0,0,17.06,23v3.51c-4.41.42-7,.89-7.3.94a1.18,1.18,0,0,0-.85.42.93.93,0,0,0-.18.77L13,48.28a1.34,1.34,0,0,0,1.35,1H46.88a1.32,1.32,0,0,0,1.36-1l3.2-19.59A.94.94,0,0,0,51.23,27.87ZM42.5,23v1.82l-1.94-.11V23a10.88,10.88,0,0,0-.11-1.51h2A12.73,12.73,0,0,1,42.5,23Zm-1.94,2.06,1.94.11v1.27l-1.94-.16Zm1.81-3.93h-2a11.06,11.06,0,0,0-1.21-3.44l1.8-.75a13,13,0,0,1,1.38,4.18ZM30.06,12.69A10.23,10.23,0,0,1,40,23v3.25c-2.83-.2-6.16-.34-9.88-.34s-7,.14-9.88.34V23c0-5.59,4.53-10.31,9.88-10.31Zm10.73,3.93-1.8.75a11.19,11.19,0,0,0-2.12-2.61l1.37-1.37a13.21,13.21,0,0,1,2.56,3.22Zm-4.21-2.09a10.57,10.57,0,0,0-2.84-1.72L34.47,11A12.57,12.57,0,0,1,38,13.14Zm-3.17-1.85a9.79,9.79,0,0,0-3.16-.59V10.14a11.67,11.67,0,0,1,3.9.74Zm-3.52-2.55v2a9.79,9.79,0,0,0-3.22.61l-.75-1.79a11.68,11.68,0,0,1,4-.76ZM25.58,11l.75,1.79a10.58,10.58,0,0,0-2.78,1.7l-1.37-1.37A12.59,12.59,0,0,1,25.58,11ZM21.91,13.4l1.37,1.37a11.19,11.19,0,0,0-2.17,2.67l-1.8-.74A13.21,13.21,0,0,1,21.91,13.4ZM19.12,17l1.8.74a11.06,11.06,0,0,0-1.18,3.39h-2A13,13,0,0,1,19.12,17Zm.46,6v1.7l-1.94.12V23a12.73,12.73,0,0,1,.09-1.51h2A10.88,10.88,0,0,0,19.59,23Zm-1.94,2.17,1.94-.11v1.23l-1.94.16Zm-8.27,3.1a.59.59,0,0,1,.42-.21h0a119.93,119.93,0,0,1,20.22-1.53A117.84,117.84,0,0,1,50.28,28h0a.59.59,0,0,1,.42.2.34.34,0,0,1,.08.27l-.31,1.91c-1.15-.19-4.1-.62-8.42-1l.9-.9a.3.3,0,0,0-.39-.46l0,0L41.51,29.2l-1.06-1.06a.3.3,0,0,0-.42.42l.8.8c-3-.22-6.68-.37-10.77-.37s-7.73.16-10.77.37l.8-.8a.3.3,0,0,0-.42-.42L18.6,29.2l-1.06-1.06a.3.3,0,0,0-.46.39l0,0,.92.92c-4.1.32-7,.74-8.32,1l-.42-1.88A.34.34,0,0,1,9.37,28.26ZM47.66,48.15a.73.73,0,0,1-.78.53H14.31a.74.74,0,0,1-.76-.53l-.42-2H48ZM48,45.83H13L9.78,30.75c1.33-.21,4.17-.62,8.21-.94l-.85.85a.3.3,0,0,0,.39.46l0,0L18.63,30l1.06,1.06a.3.3,0,0,0,.42-.42l-1-1c3.07-.22,6.75-.38,10.92-.38s7.84.17,10.92.38l-.95.95a.3.3,0,0,0,.39.46l0,0L41.54,30l1.06,1.06a.3.3,0,1,0,.46-.39l0,0-.85-.85c4.26.34,7.18.77,8.32,1Z" fill="#777"></path>
</svg>
