<svg xmlns="http://www.w3.org/2000/svg" width="41.42" height="41.42" viewBox="0 0 41.42 41.42" class="axsvgicon axsvgicon-facebook" aria-hidden="true"><path d="M8.28,10A1.75,1.75,0,0,1,10,8.28H31.38A1.75,1.75,0,0,1,33.13,10v9.74A29.66,29.66,0,0,0,40,10.26V4.71a3.3,3.3,0,0,0-3.29-3.29h-32A3.3,3.3,0,0,0,1.42,4.71V24.94a42.46,42.46,0,0,0,6.87,1.44Z" fill="none"></path><path d="M25.27,23H28l.36-2.77h-3.1a.43.43,0,0,1-.42-.42V17.48c0-1,.25-2.19,2.22-2.19h1.49V12.86c-.52,0-1.4-.1-2.37-.1-2.65,0-4.23,1.63-4.23,4.36v2.67a.43.43,0,0,1-.42.42h-2.7V23h2.7a.43.43,0,0,1,.42.42v2.29a28.33,28.33,0,0,0,2.89-.91V23.42A.43.43,0,0,1,25.27,23Z" fill="none"></path><path d="M4.71,40h32A3.3,3.3,0,0,0,40,36.71V10.26a29.66,29.66,0,0,1-6.87,9.51V31.38a1.75,1.75,0,0,1-1.75,1.75H25.27a.43.43,0,0,1-.42-.42V24.8a28.33,28.33,0,0,1-2.89.91v7a.43.43,0,0,1-.42.42H10a1.75,1.75,0,0,1-1.75-1.75v-5a42.46,42.46,0,0,1-6.87-1.44V36.71A3.3,3.3,0,0,0,4.71,40Z" fill="#ccc"></path><path d="M25.69,23.84v.64q.71-.29,1.42-.64Z" fill="#fff"></path><path d="M31.38,9.13H10a.9.9,0,0,0-.9.9V31.38a.9.9,0,0,0,.9.9H21.1V23.84H18.4a.43.43,0,0,1-.42-.42V19.79a.43.43,0,0,1,.42-.42h2.7V17.12c0-3.22,1.95-5.21,5.08-5.21a26.61,26.61,0,0,1,2.85.15.43.43,0,0,1,.37.42v3.24a.42.42,0,0,1-.42.42H27.06c-1.17,0-1.37.41-1.37,1.34v1.89h3.16a.42.42,0,0,1,.42.48l-.39,3-.07.57a.42.42,0,0,1-.42.37H27.11q-.7.34-1.42.64v7.81h5.69a.9.9,0,0,0,.9-.9V10A.9.9,0,0,0,31.38,9.13Z" fill="#fff"></path><path d="M36.71,0h-32A4.71,4.71,0,0,0,0,4.71v32a4.71,4.71,0,0,0,4.71,4.71h32a4.71,4.71,0,0,0,4.71-4.71v-32A4.71,4.71,0,0,0,36.71,0ZM1.42,4.71A3.3,3.3,0,0,1,4.71,1.42h32A3.3,3.3,0,0,1,40,4.71v32A3.3,3.3,0,0,1,36.71,40h-32a3.3,3.3,0,0,1-3.29-3.29v-32Z" fill="#777"></path><path d="M10,33.13h11.5a.43.43,0,0,0,.42-.42V23.42a.43.43,0,0,0-.42-.42h-2.7V20.22h2.7a.43.43,0,0,0,.42-.42V17.12c0-2.73,1.58-4.36,4.23-4.36,1,0,1.85.05,2.37.1v2.43H27.06c-2,0-2.22,1.17-2.22,2.19v2.31a.43.43,0,0,0,.42.42h3.1L28,23H25.27a.43.43,0,0,0-.42.42v9.29a.43.43,0,0,0,.42.42h6.12a1.75,1.75,0,0,0,1.75-1.75V10a1.75,1.75,0,0,0-1.75-1.75H10A1.75,1.75,0,0,0,8.28,10V31.38A1.75,1.75,0,0,0,10,33.13ZM9.13,10a.9.9,0,0,1,.9-.9H31.38a.9.9,0,0,1,.9.9V31.38a.9.9,0,0,1-.9.9H25.69V23.84h2.7a.42.42,0,0,0,.42-.37l.07-.57.39-3a.42.42,0,0,0-.42-.48H25.69V17.48c0-.93.2-1.34,1.37-1.34H29a.42.42,0,0,0,.42-.42V12.48a.43.43,0,0,0-.37-.42,26.61,26.61,0,0,0-2.85-.15c-3.14,0-5.08,2-5.08,5.21v2.25H18.4a.43.43,0,0,0-.42.42v3.62a.43.43,0,0,0,.42.42h2.7v8.44H10a.9.9,0,0,1-.9-.9V10Z" fill="#777"></path></svg>
