<?xml version="1.0" ?><svg id="Layer_1" style="enable-background:new 0 0 74 74;" version="1.1" viewBox="0 0 74 74" xml:space="preserve" xmlns="http://www.w3.org/2000/svg" xmlns:xlink="http://www.w3.org/1999/xlink"><style type="text/css">
	.st0{fill:#2B3033;}
</style><g><path class="st0" d="M64,69h-2.1c0.3-2,0.5-4.1,0.5-6.2c0-13.5-6.7-21.3-13.4-25.8c6.6-4.5,13.4-12.4,13.4-25.8   c0-2.1-0.2-4.2-0.5-6.2H64c1.1,0,2-0.9,2-2s-0.9-2-2-2H10C8.9,1,8,1.9,8,3s0.9,2,2,2h2.1c-0.3,2-0.5,4.1-0.5,6.2   c0,13.4,6.7,21.3,13.4,25.8c-6.6,4.5-13.4,12.3-13.4,25.8c0,2.1,0.2,4.2,0.5,6.2H10c-1.1,0-2,0.9-2,2s0.9,2,2,2h54c1.1,0,2-0.9,2-2   S65.1,69,64,69z M16.1,5h41.7c0.4,2,0.6,4.1,0.6,6.2c0,7-2.1,12.3-5,16.2H20.6c-2.9-3.9-5-9.2-5-16.2C15.5,9.1,15.7,7,16.1,5z    M29.7,38.8c0.6-0.4,1-1,1-1.8c0-0.7-0.4-1.4-1-1.8c-1.8-1-3.7-2.2-5.4-3.8h10.9v6.4c0,1.1,0.9,2,2,2s2-0.9,2-2v-6.4h10.6   c-1.8,1.6-3.7,2.8-5.4,3.8c-0.6,0.4-1,1-1,1.8c0,0.7,0.4,1.4,1,1.8c5.4,3,11.7,8.4,13.6,18c-13.8-5.2-28.4-5.2-41.7,0   C18.1,47.1,24.3,41.7,29.7,38.8z M15.5,62.8c0-0.5,0-1,0.1-1.5c13.6-5.9,28.7-5.9,42.8,0c0,0.5,0.1,1,0.1,1.5   c0,2.1-0.2,4.2-0.6,6.2H16.1C15.7,67,15.5,64.9,15.5,62.8z"/><path class="st0" d="M37.1,47.9c1.1,0,2-0.9,2-2v-1.7c0-1.1-0.9-2-2-2s-2,0.9-2,2v1.7C35.1,47,36,47.9,37.1,47.9z"/></g></svg>