<svg xmlns="http://www.w3.org/2000/svg" width="41.42" height="41.42" viewBox="0 0 41.42 41.42" class="axsvgicon axsvgicon-instagram" aria-hidden="true"><path d="M36.71,1.42h-32A3.3,3.3,0,0,0,1.42,4.71V24.94a42.53,42.53,0,0,0,7,1.46c0-.23,0-.47-.06-.72-.06-1.29-.07-1.71-.07-5s0-3.68.07-5a9.29,9.29,0,0,1,.59-3,6.56,6.56,0,0,1,3.75-3.75,9.32,9.32,0,0,1,3-.59c1.28-.06,1.71-.07,5-.07s3.68,0,5,.07a9.31,9.31,0,0,1,3,.59,6.56,6.56,0,0,1,3.75,3.75,9.29,9.29,0,0,1,.59,3c.05,1.15.07,1.62.07,4A29.66,29.66,0,0,0,40,10.26V4.71A3.3,3.3,0,0,0,36.71,1.42Z" fill="none"></path><circle cx="27.11" cy="14.3" r="1.02" fill="none"></circle><path d="M33.13,19.78c0,.28,0,.59,0,.93,0,3.25,0,3.68-.07,5a9.28,9.28,0,0,1-.59,3,6.56,6.56,0,0,1-3.75,3.75,9.26,9.26,0,0,1-3,.59c-1.28.06-1.71.07-5,.07s-3.68,0-5-.07a9.26,9.26,0,0,1-3-.59,6.56,6.56,0,0,1-3.75-3.75,8.62,8.62,0,0,1-.53-2.33,42.53,42.53,0,0,1-7-1.46V36.71A3.3,3.3,0,0,0,4.71,40h32A3.3,3.3,0,0,0,40,36.71V10.26A29.66,29.66,0,0,1,33.13,19.78Z" fill="#ccc"></path><circle cx="20.71" cy="20.71" r="4.58" fill="none"></circle><path d="M32.28,20.5c0-3,0-3.48-.07-4.72A8.45,8.45,0,0,0,31.68,13a5.71,5.71,0,0,0-3.27-3.27,8.47,8.47,0,0,0-2.78-.53c-1.27-.06-1.69-.07-4.93-.07s-3.66,0-4.93.07A8.48,8.48,0,0,0,13,9.74,5.71,5.71,0,0,0,9.74,13a8.45,8.45,0,0,0-.53,2.78c-.06,1.27-.07,1.69-.07,4.93s0,3.66.07,4.93c0,.31,0,.59.07.86a7.6,7.6,0,0,0,.46,1.92A5.7,5.7,0,0,0,13,31.68a8.41,8.41,0,0,0,2.78.53c1.27.06,1.69.07,4.93.07s3.66,0,4.93-.07a8.41,8.41,0,0,0,2.78-.53,5.7,5.7,0,0,0,3.27-3.27,8.44,8.44,0,0,0,.53-2.78c.06-1.27.07-1.69.07-4.93Zm-5.17-8.06a1.87,1.87,0,1,1-1.86,1.87A1.87,1.87,0,0,1,27.11,12.44Zm-6.41,13.7-.51,0a5.35,5.35,0,1,1,.51,0Z" fill="#fff"></path><path d="M36.71,0h-32A4.71,4.71,0,0,0,0,4.71v32a4.71,4.71,0,0,0,4.71,4.71h32a4.71,4.71,0,0,0,4.71-4.71v-32A4.71,4.71,0,0,0,36.71,0ZM40,10.26V36.71A3.3,3.3,0,0,1,36.71,40h-32a3.3,3.3,0,0,1-3.29-3.29v-32A3.3,3.3,0,0,1,4.71,1.42h32A3.3,3.3,0,0,1,40,4.71Z" fill="#777"></path><path d="M33.06,15.74a9.29,9.29,0,0,0-.59-3,6.56,6.56,0,0,0-3.75-3.75,9.31,9.31,0,0,0-3-.59c-1.28-.06-1.71-.07-5-.07s-3.68,0-5,.07a9.32,9.32,0,0,0-3,.59,6.56,6.56,0,0,0-3.75,3.75,9.29,9.29,0,0,0-.59,3c-.06,1.29-.07,1.71-.07,5s0,3.68.07,5c0,.25,0,.49.06.72a8.62,8.62,0,0,0,.53,2.33,6.56,6.56,0,0,0,3.75,3.75,9.26,9.26,0,0,0,3,.59c1.28.06,1.71.07,5,.07s3.68,0,5-.07a9.26,9.26,0,0,0,3-.59,6.56,6.56,0,0,0,3.75-3.75,9.28,9.28,0,0,0,.59-3c.06-1.29.07-1.71.07-5,0-.34,0-.65,0-.93C33.13,17.36,33.11,16.89,33.06,15.74Zm-.78,5c0,3.24,0,3.66-.07,4.93a8.44,8.44,0,0,1-.53,2.78,5.7,5.7,0,0,1-3.27,3.27,8.41,8.41,0,0,1-2.78.53c-1.27.06-1.69.07-4.93.07s-3.66,0-4.93-.07A8.41,8.41,0,0,1,13,31.68a5.7,5.7,0,0,1-3.27-3.27,7.6,7.6,0,0,1-.46-1.92c0-.27-.06-.55-.07-.86-.06-1.27-.07-1.69-.07-4.93s0-3.66.07-4.93A8.45,8.45,0,0,1,9.74,13,5.71,5.71,0,0,1,13,9.74a8.48,8.48,0,0,1,2.78-.53c1.27-.06,1.69-.07,4.93-.07s3.66,0,4.93.07a8.47,8.47,0,0,1,2.78.53A5.71,5.71,0,0,1,31.68,13a8.45,8.45,0,0,1,.53,2.78c.06,1.24.07,1.68.07,4.72Z" fill="#777"></path><path d="M20.71,15.28a5.42,5.42,0,0,0-.51,10.82l.51,0a5.42,5.42,0,0,0,0-10.85Zm0,10a4.58,4.58,0,1,1,4.58-4.58A4.58,4.58,0,0,1,20.71,25.28Z" fill="#777"></path><path d="M27.11,12.44A1.87,1.87,0,1,0,29,14.3,1.87,1.87,0,0,0,27.11,12.44Zm0,2.88a1,1,0,1,1,1-1A1,1,0,0,1,27.11,15.32Z" fill="#777"></path>
</svg>
