<svg xmlns="http://www.w3.org/2000/svg" viewBox="0 0 101.47 64.42">
  <g>
    <g>
      <path d="M71.22,45.14a10,10,0,0,0-3,7,9.67,9.67,0,1,0,19.34,0c0-3-.82-5.41-2.44-7.06Z" fill="#cfcfcf"/>
      <path d="M25.56,41.39A10.82,10.82,0,1,0,36.38,52.21,10.83,10.83,0,0,0,25.56,41.39Z" fill="#cfcfcf"/>
      <path d="M11.72,29.3,5.56,31.36l-.12,0A4,4,0,0,0,2.7,32.69,1.88,1.88,0,0,0,2.37,34a.8.8,0,0,1,0,.13l.48,18.32a.71.71,0,0,1-.64.72s-.77.1-.8.6v2a.7.7,0,0,1,0,.1.47.47,0,0,0,0,.26.33.33,0,0,0,.21,0c.93,0,7.9-.23,10-.3.37-3.06,2.59-16,13.85-16,10.46,0,13,11.54,13.53,14.39l25,.3,1.3-5.19c1-5.91,5.73-5.49,5.78-5.49l14-.06c5.08.18,5.59,8.67,5.61,9,.19,2.83,2.33,2.92,5.84,2.72.7,0,1.42-.08,2.1-.07h0c1.07,0,1.22-.61,1.24-.88l.27-2c0-1.22-1.47-1.62-2-1.76-.56.44-1,.81-1.45.62-.85-.34-.94-1.52-1-1.75l.48-44A4.49,4.49,0,0,0,95.2,2.14a3.89,3.89,0,0,0-2.91-.71h-.11L31.32,3c-8.13,1-13.94,20.8-14,21A7.08,7.08,0,0,1,11.72,29.3Zm.62,27.35h0Z" fill="#ffe697"/>
      <path d="M98.82,55.59h0c-.68,0-1.4,0-2.1.07-3.5.2-5.89.16-6.09-2.68,0-.36-.28-8.89-5.36-9.08L71.2,44s-4.73-.42-5.78,5.49l-1.3,5.19-25-.3C38.61,51.51,36,40,25.56,40c-11.26,0-13.28,12.9-13.65,16-2.14.07-9.31.32-10.24.32-.13,0-.19,0-.21,0a.47.47,0,0,1,0-.26.72.72,0,0,0,0-.1V54.18l8.31-.29a.43.43,0,0,0,.41-.4c0-.66,1.12-16.09,17.14-16.09.1,0,.27-.18.36-.18a3.1,3.1,0,0,0,.47.07c8.3.77,13.87,5.67,15.5,14.79,0,.16-.1.62.05.66a.42.42,0,0,0,.28,0c.92-.14,12.08.11,19.53.2h0a.43.43,0,0,0,.42-.38L65.1,41c0-.16.18-3.88,6.26-3.88,7.33,0,15,0,15.08,0a4.54,4.54,0,0,1,2.87,1c1.07,1,1.65,2.61,1.73,4.84.24,6.48,1.45,9,1.51,9.07s.14.22.29.22l-.21.2,7.23-.23a1.65,1.65,0,0,1,.17.76v1.73C100,55,99.89,55.59,98.82,55.59Z" fill="#f8b41f"/>
    </g>
    <path d="M22.85,40.24c-.34.07-.67.15-1,.25A9.74,9.74,0,0,1,22.85,40.24Z" fill="none"/>
    <path d="M25.55,40a8,8,0,0,0-1.21.06A8.11,8.11,0,0,1,25.55,40Z" fill="none"/>
    <path d="M24,40l-.84.12Z" fill="none"/>
    <path d="M20.63,41q-.43.19-.83.41A3.84,3.84,0,0,1,20.63,41Z" fill="none"/>
    <path d="M19.66,41.43a11.73,11.73,0,0,0-2.5,1.89A11.78,11.78,0,0,1,19.66,41.43Z" fill="none"/>
    <path d="M15.72,45c-.27.37-.53.75-.77,1.14A12.2,12.2,0,0,1,15.72,45Z" fill="none"/>
    <path d="M21.8,40.51a7.73,7.73,0,0,0-1,.38A6.5,6.5,0,0,1,21.8,40.51Z" fill="none"/>
    <path d="M26.79,40c-.4,0-.81-.06-1.23-.06A8.79,8.79,0,0,0,26.79,40Z" fill="none"/>
    <path d="M32.26,43.72a10.77,10.77,0,0,0-13.55.1,12.79,12.79,0,0,0-2.48,2.9,10.81,10.81,0,1,0,18.88.42A12.94,12.94,0,0,0,32.26,43.72ZM25.78,59.6A7.17,7.17,0,1,1,33,52.43,7.17,7.17,0,0,1,25.78,59.6Z" fill="none"/>
    <path d="M26.82,40A11.42,11.42,0,0,1,31,41.22,11.4,11.4,0,0,0,26.81,40Z" fill="none"/>
    <path d="M39.07,54.34a2.48,2.48,0,0,0-.09-.48A2.27,2.27,0,0,0,39.07,54.34Z" fill="none"/>
    <path d="M39,53.78a3.11,3.11,0,0,0-.13-.6A2.2,2.2,0,0,0,39,53.78Z" fill="none"/>
    <path d="M32.17,41.92h0A11.2,11.2,0,0,0,31,41.25,11.12,11.12,0,0,1,32.17,41.92Z" fill="none"/>
    <path d="M38.83,53.12a26,26,0,0,0-.71-2.54A26,26,0,0,1,38.83,53.12Z" fill="none"/>
    <path d="M38.12,50.57a22.71,22.71,0,0,0-1.28-3.08A22.81,22.81,0,0,1,38.12,50.57Z" fill="none"/>
    <path d="M15,46.12Z" fill="none"/>
    <path d="M16.19,44.37a12.36,12.36,0,0,1,1-1.06A13.56,13.56,0,0,0,16.19,44.37Z" fill="none"/>
    <path d="M11.75,55.62v0Z" fill="none"/>
    <path d="M11.81,55.23v0Z" fill="none"/>
    <path d="M14.78,46.42a25.57,25.57,0,0,0-3,8.8A25.59,25.59,0,0,1,14.78,46.42Z" fill="none"/>
    <path d="M4.73,31.53a3.39,3.39,0,0,0-2,1.18A1.91,1.91,0,0,0,2.37,34a.62.62,0,0,1,0,.13l.48,18.31a.71.71,0,0,1-.64.72,1.55,1.55,0,0,0-.37.1l2.54-.09C4.26,38.87,4.46,33.54,4.73,31.53Z" fill="none"/>
    <path d="M98.38,51.18a2.67,2.67,0,0,1-.35.23h.91A3.12,3.12,0,0,0,98.38,51.18Z" fill="none"/>
    <path d="M99.84,52.21l-7.23.23a.41.41,0,0,1-.39-.22c-.06-.11-1.48-2.79-1.72-9.26-.08-2.23-.67-3.86-1.73-4.84a3.56,3.56,0,0,0-2.36-1H71.25c-6,0-6.17,3.72-6.17,3.88l-1.2,11.5a.42.42,0,0,1-.42.38h0c-7.45-.09-18.75-.17-19.67,0a.42.42,0,0,1-.28,0,.43.43,0,0,1-.29-.33C41.59,43.45,36.34,38.23,28,37.46a3.11,3.11,0,0,1-.47-.07h-.28c-16,0-17.13,15.92-17.14,16.08a.43.43,0,0,1-.41.4l-8.3.29v1.67a.7.7,0,0,1,0,.1.47.47,0,0,0,0,.26.35.35,0,0,0,.2,0c.93,0,7.89-.23,10-.3v-.32h0v-.35h0a25.57,25.57,0,0,1,3-8.8h0l.15-.26h0c.24-.39.5-.77.77-1.14.15-.21.31-.41.47-.61a13.56,13.56,0,0,1,1-1.06h0a11.73,11.73,0,0,1,2.5-1.89l.14-.08q.4-.22.83-.41l.14-.06c.33-.14.67-.27,1-.38h0a9.74,9.74,0,0,1,1-.25l.31-.06.84-.12h.34c.39,0,.79-.06,1.21-.06a8.31,8.31,0,0,1,1.23.06h0A11.4,11.4,0,0,1,31,41.22h0a11.2,11.2,0,0,1,1.15.68,12.3,12.3,0,0,1,4.66,5.56h0a22.71,22.71,0,0,1,1.28,3.08h0a26,26,0,0,1,.71,2.54v.07a2.65,2.65,0,0,0,.13.6v.07a2.16,2.16,0,0,0,.09.48l25,.3,1.3-5.19c1-5.5,5.1-5.52,5.7-5.49h0l14.09-.06c5.08.18,5.59,8.67,5.61,9,.2,2.83,2.33,2.92,5.83,2.71.7,0,1.41-.08,2.1-.07,1.1,0,1.27-.61,1.28-.88V53A1.65,1.65,0,0,0,99.84,52.21Z" fill="none"/>
    <path d="M9.33,53c.25-2.21,2-13.16,12.74-15.88H15.22a.42.42,0,0,1-.4-.57L25.12,9.19H23.89c-4,6.15-6.52,14.69-6.56,14.83a7.08,7.08,0,0,1-5.6,5.27L5.57,31.35c-.18,1.24-.48,5.71-.32,21.83Zm-3.1-19.7a.43.43,0,0,1,.42-.42h.87l.26-.11a4.6,4.6,0,0,1,1-.31,4.93,4.93,0,0,1,.87-.08A4.15,4.15,0,0,1,14,36.25a4.15,4.15,0,0,1-4.37,3.89,4.87,4.87,0,0,1-.87-.08,4.57,4.57,0,0,1-.91-.28.42.42,0,0,1-.16,0h0l-1-.1a.43.43,0,0,1-.39-.42Z" fill="none"/>
    <path d="M47.4,52c2.79,0,7.53,0,15.67.1L64.23,41v-.25H47.4Z" fill="none"/>
    <path d="M27.28,36.54h.36a.43.43,0,0,1,.17,0h.3C36.59,37.33,42.22,42.81,44,52c.44,0,1.22-.06,2.57-.08V34.3c-2.16,0-12,.26-17.71.47-3,.11-4,.83-4.35,1.25a.92.92,0,0,0-.26.65.43.43,0,0,1,0,.08A22.62,22.62,0,0,1,27.28,36.54Z" fill="none"/>
    <path d="M46.56,9.06,26,9.19,15.83,36.3h7.59a1.92,1.92,0,0,1,.39-.79c.78-1,2.46-1.5,5-1.59,5.7-.21,15.61-.42,17.74-.47ZM45.09,26.84H23.72a2.31,2.31,0,0,1-1.88-.8,2.49,2.49,0,0,1,.08-2.53l3.21-8.43c.09-.4.75-2.24,4.66-2.27l14.81-.12h.5Z" fill="none"/>
    <path d="M29.91,13.82l-.19-.45-2,.27.16.4a8,8,0,0,1,1.9-.22Z" fill="#777"/>
    <path d="M32,13.8l-.18-.44H31l.18.44Z" fill="#777"/>
    <polygon points="7.52 33.75 7.08 33.75 7.08 38.91 7.52 38.95 7.52 33.75" fill="none"/>
    <path d="M96.32,8.73,47.41,9V39.88H64.47c.5-1.38,2-3.58,6.78-3.58H86.34a4.32,4.32,0,0,1,2.94,1.17c1.25,1.14,1.93,3,2,5.45.19,5.21,1.18,7.9,1.51,8.66l3.78-.12a2.16,2.16,0,0,1-.77-1.65Z" fill="none"/>
    <path d="M77.71,45.35H71.39a9.67,9.67,0,0,0-2.89,6.79,9.38,9.38,0,0,0,18.76,0h0a9.41,9.41,0,0,0-2.36-6.85Zm.41,13.54a6.46,6.46,0,1,1,6.46-6.46h0A6.46,6.46,0,0,1,78.12,58.89Z" fill="none"/>
    <path d="M96.35,5.83a4.49,4.49,0,0,0-1.19-3.68,3.9,3.9,0,0,0-2.91-.71h-.11L31.32,3c-2.55.33-4.86,2.49-6.85,5.3l71.86-.46Z" fill="none"/>
    <path d="M29.79,13.82a8,8,0,0,0-1.9.22l3.87,9.48L34.54,25,29.91,13.82Z" fill="#fff"/>
    <path d="M33.83,18.2,32,13.8h-.79l2.6,6.3Z" fill="#fff"/>
    <path d="M78.12,46.82a5.61,5.61,0,1,0,5.61,5.61,5.61,5.61,0,0,0-5.61-5.61ZM78,55.68a3.15,3.15,0,1,1,3.15-3.15A3.15,3.15,0,0,1,78,55.68Z" fill="#fff"/>
    <path d="M25.78,46.11a6.32,6.32,0,1,0,6.32,6.32h0A6.33,6.33,0,0,0,25.78,46.11ZM25.66,56a3.47,3.47,0,1,1,3.47-3.47A3.47,3.47,0,0,1,25.66,56Z" fill="#fff"/>
    <path d="M33.83,18.2v1.91l-2.6-6.3H29.91L34.54,25l-2.78-1.47L27.89,14c-1.61.41-1.79,1.25-1.79,1.27v.11l-3.24,8.51c-.32.71-.39,1.26-.18,1.55s1,.39,1.23.38H44.09V13.71L32,13.8Z" fill="#cfcfcf"/>
    <circle cx="78.01" cy="52.54" r="2.3" fill="#cfcfcf"/>
    <circle cx="25.66" cy="52.55" r="2.62" fill="#cfcfcf"/>
    <path d="M9.64,33.21a4.08,4.08,0,0,0-.72.06,3.39,3.39,0,0,0-.55.15v5.65a3.35,3.35,0,0,0,.55.15,4,4,0,0,0,.72.07,3.31,3.31,0,0,0,3.52-3A3.31,3.31,0,0,0,9.64,33.21Z" fill="#cfcfcf"/>
    <path d="M16.19,44.37c-.16.2-.32.4-.47.61Z" fill="#777"/>
    <path d="M11.81,55.22Z" fill="#777"/>
    <path d="M11.76,55.58Z" fill="#777"/>
    <path d="M14.78,46.42h0l.16-.27h0Z" fill="#777"/>
    <path d="M26.79,40Z" fill="#777"/>
    <path d="M32.19,41.93a14.63,14.63,0,0,1,4.66,5.56h0A12.3,12.3,0,0,0,32.19,41.93Z" fill="#777"/>
    <polygon points="14.95 46.12 14.95 46.12 14.95 46.12 14.95 46.12" fill="#777"/>
    <polygon points="17.16 43.32 17.16 43.32 17.16 43.32 17.16 43.32" fill="#777"/>
    <path d="M24.34,40h0Z" fill="#777"/>
    <path d="M19.8,41.35l-.14.08Z" fill="#777"/>
    <path d="M31,41.25Z" fill="#777"/>
    <path d="M39,53.86Z" fill="#777"/>
    <path d="M38.85,53.18v0Z" fill="#777"/>
    <path d="M38.13,50.57Z" fill="#777"/>
    <path d="M20.77,40.88l-.14.06Z" fill="#777"/>
    <path d="M21.85,40.49Z" fill="#777"/>
    <path d="M23.16,40.18l-.31.06Z" fill="#777"/>
    <path d="M6.62,39.72l1,.1h0a.42.42,0,0,0,.16,0,4.57,4.57,0,0,0,.91.28,4.87,4.87,0,0,0,.87.08A4.15,4.15,0,0,0,14,36.34v-.1a4.15,4.15,0,0,0-4.37-3.89,4.93,4.93,0,0,0-.87.08,4.6,4.6,0,0,0-1,.31l-.26.11H6.66a.43.43,0,0,0-.42.42v6A.43.43,0,0,0,6.62,39.72Zm1.76-6.29a3.39,3.39,0,0,1,.55-.15,4.08,4.08,0,0,1,.72-.06,3.31,3.31,0,0,1,3.52,3,3.31,3.31,0,0,1-3.52,3,4,4,0,0,1-.72-.07A3.35,3.35,0,0,1,8.38,39Zm-1.29.32h.44V39H7.09Z" fill="#777"/>
    <path d="M29.78,12.82c-3.91,0-4.56,1.87-4.66,2.27l-3.21,8.43A2.49,2.49,0,0,0,21.83,26a2.31,2.31,0,0,0,1.88.8H45.09V12.7h-.5Zm14.31,13H23.89c-.19,0-1,0-1.23-.38s-.14-.84.18-1.55l3.24-8.51v-.11s.18-.86,1.79-1.27l-.16-.4,2-.27.19.45h1.31l-.2-.41h.79l.18.44,12.08-.1Z" fill="#777"/>
    <path d="M78.12,46a6.46,6.46,0,1,0,6.46,6.46h0A6.46,6.46,0,0,0,78.12,46Zm0,12.06a5.61,5.61,0,1,1,5.61-5.61A5.61,5.61,0,0,1,78.12,58Z" fill="#777"/>
    <path d="M78,49.39a3.15,3.15,0,1,0,3.15,3.15A3.15,3.15,0,0,0,78,49.39Zm0,5.44a2.3,2.3,0,1,1,2.3-2.3,2.3,2.3,0,0,1-2.3,2.3Z" fill="#777"/>
    <path d="M25.78,45.26A7.17,7.17,0,1,0,33,52.43h0A7.18,7.18,0,0,0,25.78,45.26Zm0,13.49a6.32,6.32,0,1,1,6.32-6.32h0A6.33,6.33,0,0,1,25.78,58.75Z" fill="#777"/>
    <path d="M98.26,49.72a.71.71,0,0,0-.58.19,2,2,0,0,1-.32.26,1.61,1.61,0,0,1-.08-.38l.48-43.93c.06-2.17-.51-3.79-1.7-4.79a5.25,5.25,0,0,0-4-1L31.21,1.63C28,2,25.11,4.87,22.78,8.37a.42.42,0,0,0-.35.41.4.4,0,0,0,0,.09,64.88,64.88,0,0,0-6.49,14.8,5.71,5.71,0,0,1-4.51,4.24h-.12L5.18,30A5.16,5.16,0,0,0,1.53,31.9,3.28,3.28,0,0,0,1,34.25L1.44,52A2,2,0,0,0,0,53.76v2a1.84,1.84,0,0,0,.4,1.37,1.61,1.61,0,0,0,1.28.53c1.11,0,10.3-.31,10.69-.32a.71.71,0,0,0,.68-.66,22.9,22.9,0,0,1,.41-2.7,12.22,12.22,0,0,0,24.15.19c.09.53.13.88.14,1a.71.71,0,0,0,.7.63l26.19.32h0a.71.71,0,0,0,.69-.54l1.44-5.78c.41-2.3,1.43-3.39,2.37-3.91a10.83,10.83,0,1,0,19.53,6.33,12.7,12.7,0,0,0-1-5.26c1.5,2.24,1.74,6,1.74,6.11.31,4.45,4.37,4.22,7.33,4,.64,0,1.24-.07,1.8-.07h.26a2.42,2.42,0,0,0,2.65-2.16V53A3.42,3.42,0,0,0,98.26,49.72Zm.12,1.47a3.12,3.12,0,0,1,.56.21H98a2.67,2.67,0,0,0,.35-.22Zm-1.74.28-3.78.12c-.33-.76-1.32-3.45-1.51-8.66-.09-2.48-.77-4.31-2-5.45a4.32,4.32,0,0,0-2.94-1.17H71.32c-4.73,0-6.28,2.2-6.78,3.58H47.4V9l48.91-.32-.45,41.08a2.16,2.16,0,0,0,.78,1.65ZM64.26,40.73V41L63.08,52.06C54.94,52,50.2,52,47.4,52V40.73ZM31.32,3,92.14,1.45h.11a3.9,3.9,0,0,1,2.91.71,4.49,4.49,0,0,1,1.19,3.68v2L24.5,8.35C26.45,5.53,28.77,3.37,31.32,3ZM24.5,36c.36-.42,1.4-1.14,4.35-1.25,5.68-.21,15.55-.42,17.71-.47V52a19,19,0,0,0-2.57.08c-1.76-9.17-7.39-14.65-15.87-15.44h-.3a.43.43,0,0,0-.17,0h-.36a22.62,22.62,0,0,0-3,.21.43.43,0,0,0,0-.08A.92.92,0,0,1,24.5,36Zm4.32-2.09c-2.54.09-4.23.63-5,1.59a1.92,1.92,0,0,0-.39.79h-7.6L26,9.19l20.53-.13V33.44c-2.11,0-12,.26-17.73.47ZM5.57,31.35l6.16-2A7.08,7.08,0,0,0,17.33,24,63.9,63.9,0,0,1,23.89,9.15h1.22L14.82,36.58a.42.42,0,0,0,.4.57h6.86C11.36,39.87,9.58,50.83,9.33,53l-4.08.14C5.09,37,5.39,32.58,5.57,31.35ZM2.23,53.2a.71.71,0,0,0,.64-.72L2.39,34.16a.62.62,0,0,0,0-.13,1.91,1.91,0,0,1,.32-1.32,3.39,3.39,0,0,1,2-1.18c-.27,2-.47,7.34-.33,21.68l-2.54.09A1.55,1.55,0,0,1,2.23,53.2ZM25.55,63A10.79,10.79,0,0,1,16.23,46.7a12.79,12.79,0,0,1,2.48-2.9,10.77,10.77,0,0,1,13.55-.1,12.94,12.94,0,0,1,2.86,3.43A10.8,10.8,0,0,1,25.55,63Zm52.33-1.29a9.48,9.48,0,0,1-9.38-9.55,9.67,9.67,0,0,1,2.89-6.79H84.91a9.41,9.41,0,0,1,2.36,6.85,9.48,9.48,0,0,1-9.38,9.51Zm20.84-6.14c-.69,0-1.4,0-2.1.07-3.5.2-5.64.12-5.83-2.71,0-.36-.53-8.85-5.61-9L71.1,44h0c-.6,0-4.72,0-5.7,5.49l-1.3,5.19-25-.3a2.48,2.48,0,0,0-.09-.48v-.1a3.11,3.11,0,0,0-.13-.6v-.07a26,26,0,0,0-.71-2.54h0a22.81,22.81,0,0,0-1.28-3.08,14.63,14.63,0,0,0-4.66-5.56h0A11.12,11.12,0,0,0,31,41.25h0A11.42,11.42,0,0,0,26.82,40h0c-.4,0-.81-.06-1.23-.06a8,8,0,0,0-1.21.06H24a3,3,0,0,0-.84.12l-.31.06c-.34.07-.67.15-1,.25h0a7.73,7.73,0,0,0-1,.38l-.14.06q-.43.19-.83.41l-.14.08a11.78,11.78,0,0,0-2.5,1.89h0a12.36,12.36,0,0,0-1,1.06l-.47.61A12.2,12.2,0,0,0,15,46h0l-.16.27a25.59,25.59,0,0,0-3,8.8h0v.35h0v.32c-2.13.07-9.1.3-10,.3a.35.35,0,0,1-.2,0,.47.47,0,0,1,0-.26.7.7,0,0,0,0-.1V54.16l8.3-.29a.43.43,0,0,0,.41-.4c0-.16,1.1-16.08,17.14-16.08h.28a3.11,3.11,0,0,0,.47.07c8.3.77,13.55,6,15.18,15.11a.43.43,0,0,0,.29.33.42.42,0,0,0,.28,0c.92-.14,12.22-.06,19.67,0h0a.42.42,0,0,0,.42-.38L65.27,41c0-.16.14-3.88,6.17-3.88H86.6a3.56,3.56,0,0,1,2.36,1q1.6,1.5,1.73,4.84c.24,6.47,1.66,9.15,1.72,9.26a.41.41,0,0,0,.39.22l7.23-.23a1.65,1.65,0,0,1,0,.75v1.73c0,.27-.18.9-1.28.86Z" fill="#777"/>
    <path d="M25.66,49.08a3.47,3.47,0,1,0,3.47,3.47,3.47,3.47,0,0,0-3.47-3.47Zm0,6.09a2.62,2.62,0,1,1,2.62-2.62h0A2.62,2.62,0,0,1,25.66,55.17Z" fill="#777"/>
  </g>
</svg>