<svg xmlns="http://www.w3.org/2000/svg" width="41.42" height="41.42" viewBox="0 0 41.42 41.42" class="axsvgicon axsvgicon-pinterest" aria-hidden="true"><path d="M21,12.86c-5.45,0-7.93,3.76-7.93,7.26,0,1.69.93,3.95,2.44,4.65.28.13.37,0,.4-.16l.34-1.37a.35.35,0,0,0-.08-.34,4.67,4.67,0,0,1-.89-2.74A5.2,5.2,0,0,1,20.66,15a4.73,4.73,0,0,1,5,4.88c0,3.18-1.59,5.5-3.77,5.5a1.85,1.85,0,0,1-1.47-.68,1.72,1.72,0,0,1-.31-1.49c.12-.51.28-1,.44-1.55a9.51,9.51,0,0,0,.55-2.45,1.51,1.51,0,0,0-1.52-1.69c-1.22,0-2.17,1.28-2.17,2.91a4.57,4.57,0,0,0,.31,1.66.42.42,0,0,1,0,.26l-1,4.29a29.43,29.43,0,0,0,10.78-3,8.84,8.84,0,0,0,.85-3.86C28.37,15.83,25.19,12.86,21,12.86Z" fill="none"></path><path d="M8.28,20.71a12.42,12.42,0,0,1,24.81-.86A29.69,29.69,0,0,0,40,10.26V4.71a3.3,3.3,0,0,0-3.29-3.29h-32A3.3,3.3,0,0,0,1.42,4.71V24.94a43.2,43.2,0,0,0,8.33,1.61A12.4,12.4,0,0,1,8.28,20.71Z" fill="none"></path><path d="M4.71,40h32A3.3,3.3,0,0,0,40,36.71V10.26a29.69,29.69,0,0,1-6.91,9.58c0,.29,0,.57,0,.86A12.4,12.4,0,0,1,17.26,32.64a.42.42,0,0,1-.1-.77,13.29,13.29,0,0,0,1.49-3.14l.54-2.06a.43.43,0,0,1,.28-.3.43.43,0,0,1,.4.08,3.62,3.62,0,0,0,2.27.8,6,6,0,0,0,5.38-3.6,29.43,29.43,0,0,1-10.78,3l-.36,1.54a11.47,11.47,0,0,0,0,3.44.41.41,0,0,1-.55.53,12.43,12.43,0,0,1-6-5.57,43.2,43.2,0,0,1-8.33-1.61V36.71A3.3,3.3,0,0,0,4.71,40Z" fill="#ccc"></path><path d="M19.6,16.63A2.35,2.35,0,0,1,22,19.17a9.9,9.9,0,0,1-.58,2.68c-.16.51-.31,1-.43,1.51a.87.87,0,0,0,.14.77,1,1,0,0,0,.8.36c1.69,0,2.92-2,2.92-4.65a3.92,3.92,0,0,0-4.16-4,4.37,4.37,0,0,0-4.57,4.36,3.87,3.87,0,0,0,.7,2.2l.06.08,0-.19a5.45,5.45,0,0,1-.32-1.85C16.58,18.28,17.9,16.63,19.6,16.63Z" fill="#fff"></path><path d="M32.28,20.53A11.57,11.57,0,1,0,15.43,31a10.86,10.86,0,0,1,.12-3.06l.3-1.29.26-1.08a1.1,1.1,0,0,1-1,0c-1.9-.89-2.93-3.45-2.93-5.42C12.2,16.21,14.94,12,21,12c4.7,0,8.25,3.34,8.25,7.78A10.05,10.05,0,0,1,28.71,23a7,7,0,0,1-6.56,5.09,4.58,4.58,0,0,1-2.29-.62l-.38,1.46a13.28,13.28,0,0,1-1.38,3,11.55,11.55,0,0,0,14.2-11.27C32.28,20.65,32.28,20.59,32.28,20.53Z" fill="#fff"></path><path d="M36.71,0h-32A4.71,4.71,0,0,0,0,4.71v32a4.71,4.71,0,0,0,4.71,4.71h32a4.71,4.71,0,0,0,4.71-4.71v-32A4.71,4.71,0,0,0,36.71,0ZM1.42,4.71A3.3,3.3,0,0,1,4.71,1.42h32A3.3,3.3,0,0,1,40,4.71v32A3.3,3.3,0,0,1,36.71,40h-32a3.3,3.3,0,0,1-3.29-3.29v-32Z" fill="#777"></path><path d="M15.78,32.12a.41.41,0,0,0,.55-.53,11.47,11.47,0,0,1,0-3.44l.36-1.54,1-4.29a.42.42,0,0,0,0-.26,4.57,4.57,0,0,1-.31-1.66c0-1.63,1-2.91,2.17-2.91a1.51,1.51,0,0,1,1.52,1.69,9.51,9.51,0,0,1-.55,2.45c-.16.51-.32,1-.44,1.55a1.72,1.72,0,0,0,.31,1.49,1.85,1.85,0,0,0,1.47.68c2.19,0,3.77-2.31,3.77-5.5a4.73,4.73,0,0,0-5-4.88,5.2,5.2,0,0,0-5.42,5.21,4.67,4.67,0,0,0,.89,2.74.35.35,0,0,1,.08.34l-.34,1.37c0,.13-.12.29-.4.16-1.5-.7-2.44-3-2.44-4.65,0-3.5,2.48-7.26,7.93-7.26,4.22,0,7.4,3,7.4,6.93a8.84,8.84,0,0,1-.85,3.86,6,6,0,0,1-5.38,3.6,3.62,3.62,0,0,1-2.27-.8.43.43,0,0,0-.4-.08.43.43,0,0,0-.28.3l-.54,2.06a13.29,13.29,0,0,1-1.49,3.14.42.42,0,0,0,.1.77A12.4,12.4,0,0,0,33.13,20.71c0-.29,0-.58,0-.86A12.41,12.41,0,1,0,15.78,32.12Zm4.93-23a11.58,11.58,0,0,1,11.57,11.4c0,.06,0,.12,0,.17A11.55,11.55,0,0,1,18.08,32a13.28,13.28,0,0,0,1.38-3l.38-1.46a4.58,4.58,0,0,0,2.29.62A7,7,0,0,0,28.71,23a10.05,10.05,0,0,0,.52-3.23C29.22,15.35,25.68,12,21,12c-6,0-8.78,4.2-8.78,8.11,0,2,1,4.53,2.93,5.42a1.1,1.1,0,0,0,1,0l-.26,1.08-.3,1.29A10.86,10.86,0,0,0,15.43,31,11.57,11.57,0,0,1,20.71,9.13Zm4.11,10.7c0,2.69-1.23,4.65-2.92,4.65a1,1,0,0,1-.8-.36.87.87,0,0,1-.14-.77c.12-.49.27-1,.43-1.51A9.9,9.9,0,0,0,22,19.17a2.35,2.35,0,0,0-2.37-2.54c-1.69,0-3,1.65-3,3.76a5.45,5.45,0,0,0,.32,1.85l0,.19-.06-.08a3.87,3.87,0,0,1-.7-2.2,4.37,4.37,0,0,1,4.57-4.36A3.92,3.92,0,0,1,24.82,19.84Z" fill="#777"></path>
</svg>
