<svg xmlns="http://www.w3.org/2000/svg" viewBox="0 0 60 60" class="axsvgicon axsvgicon-revendeur-header" aria-hidden="true"> <g> <polygon points="39.42 23.52 34.56 13.96 31.16 13.96 33.76 23.52 39.42 23.52" fill="none"></polygon> <path d="M30.49,26a2.65,2.65,0,0,0,2.68-1.72H27.81A2.65,2.65,0,0,0,30.49,26Z" fill="none"></path> <polygon points="11.93 13.96 3.21 23.52 8.56 23.52 14.98 13.96 11.93 13.96" fill="none"></polygon> <polygon points="27.11 23.52 26.76 13.96 23.33 13.96 21.42 23.52 27.11 23.52" fill="none"></polygon> <polygon points="14.75 23.52 18.92 13.96 15.55 13.96 9.13 23.52 14.75 23.52" fill="none"></polygon> <path d="M24.23,26a2.65,2.65,0,0,0,2.68-1.72H21.55A2.65,2.65,0,0,0,24.23,26Z" fill="none"></path> <path d="M39.89,25.22a3.87,3.87,0,0,1-6.26,0,3.87,3.87,0,0,1-6.26,0,3.87,3.87,0,0,1-6.26,0A3.65,3.65,0,0,1,18,26.81a3.65,3.65,0,0,1-3.13-1.59,3.65,3.65,0,0,1-3.13,1.59,3.65,3.65,0,0,1-3.13-1.59,3.32,3.32,0,0,1-1.67,1.33V49.88h3.28V28.64H43.8a.24.24,0,0,1,.24.24v21h3.78v-18L42,26.68A3.44,3.44,0,0,1,39.89,25.22Z" fill="none"></path> <path d="M38.52,19.19a9.63,9.63,0,0,1,.86-4L38.44,14H35.09l3.61,7.11A9.7,9.7,0,0,1,38.52,19.19Z" fill="none"></path> <path d="M40.06,14H39l.58.78Q39.82,14.33,40.06,14Z" fill="none"></path> <path d="M36.76,26a2.65,2.65,0,0,0,2.68-1.72H34.07A2.65,2.65,0,0,0,36.76,26Z" fill="none"></path> <path d="M5.45,26a2.65,2.65,0,0,0,2.68-1.72H2.76A2.65,2.65,0,0,0,5.45,26Z" fill="none"></path> <polygon points="33.27 23.52 30.67 13.96 27.24 13.96 27.59 23.52 33.27 23.52" fill="none"></polygon> <polygon points="20.94 23.52 22.85 13.96 19.43 13.96 15.27 23.52 20.94 23.52" fill="none"></polygon> <path d="M11.71,26a2.65,2.65,0,0,0,2.68-1.72H9A2.65,2.65,0,0,0,11.71,26Z" fill="none"></path> <path d="M18,26a2.65,2.65,0,0,0,2.68-1.72H15.29A2.65,2.65,0,0,0,18,26Z" fill="none"></path> <g> <polygon points="13.67 29.11 20.25 44.25 20.25 37.66 16.6 29.11 13.67 29.11" fill="#fcfcfc"></polygon> <polygon points="20.72 44.93 24.18 46.9 20.72 38.77 20.72 44.93" fill="#fcfcfc"></polygon> <polygon points="25.36 40.74 20.72 29.45 20.72 33.61 22.81 38.59 25.36 40.74" fill="#fcfcfc"></polygon> <polygon points="20.25 32.49 20.25 29.11 18.82 29.11 20.25 32.49" fill="#fcfcfc"></polygon> </g> <g> <polygon points="10.67 29.11 10.67 49.88 20.25 49.88 20.25 48.13 20.25 44.25 13.67 29.11 10.67 29.11" fill="#ccc"></polygon> <rect x="20.72" y="48.37" width="22.84" height="1.52" fill="#ccc"></rect> <polygon points="16.6 29.11 20.25 37.66 20.25 32.49 18.82 29.11 16.6 29.11" fill="#ccc"></polygon> <polygon points="20.72 29.45 25.36 40.74 22.81 38.59 20.72 33.61 20.72 38.77 24.18 46.9 20.72 44.93 20.72 47.89 43.56 47.89 43.56 29.11 20.72 29.11 20.72 29.45" fill="#ccc"></polygon> <path d="M57.43,19.19a9.19,9.19,0,0,0-17.48-4c-.08.16-.16.32-.23.49a9.17,9.17,0,0,0,.39,7.85l.08.14.07.11c.1.18.21.36.32.53a9.27,9.27,0,0,0,1.27,1.5c.15.14.3.28.46.42h0l.64.58.72.65.67.61,3.51,3.18.39.36.39-.36,3.51-3.17.66-.6L54,26.38h0A9.19,9.19,0,0,0,57.43,19.19Zm-9.22-2.53a1.93,1.93,0,1,1,1.93-1.93A1.93,1.93,0,0,1,48.21,16.65Z" fill="#444"></path> </g> <g> <path d="M48.22,9.48a9.68,9.68,0,0,0-7.6,3.69H11.75a.39.39,0,0,0-.29.13L2,23.65v0a.39.39,0,0,0-.08.15v.05a.37.37,0,0,0,0,0c0,1.6,1.58,2.9,3.53,2.9a4.25,4.25,0,0,0,.67-.06V50.28a.39.39,0,0,0,.39.39H48.21a.39.39,0,0,0,.39-.39V31.91l5.91-5.34v0A9.69,9.69,0,0,0,48.22,9.48Zm5.73,16.9h0l-1.2,1.09-.66.6L48.6,31.24l-.39.36-.39-.36L44.3,28.06l-.67-.61-.72-.65-.64-.58h0c-.16-.13-.31-.27-.46-.42a9.27,9.27,0,0,1-1.27-1.5c-.12-.17-.22-.35-.32-.53l-.07-.11-.08-.14a9.17,9.17,0,0,1-.39-7.85c.07-.17.15-.33.23-.49a9.2,9.2,0,1,1,14,11.2ZM27.11,23.52H21.42L23.33,14h3.43Zm-.2.79A2.65,2.65,0,0,1,24.23,26a2.65,2.65,0,0,1-2.68-1.72ZM40.06,14q-.24.38-.45.78L39,14Zm-1.62,0,.94,1.26a9.6,9.6,0,0,0-.67,5.85L35.09,14Zm-3.88,0,4.86,9.56H33.76L31.16,14Zm4.88,10.35A2.65,2.65,0,0,1,36.76,26a2.65,2.65,0,0,1-2.68-1.72ZM30.67,14l2.61,9.56H27.59L27.24,14Zm2.51,10.35A2.65,2.65,0,0,1,30.49,26a2.65,2.65,0,0,1-2.68-1.72Zm-12.24-.79H15.27L19.43,14h3.41Zm-.28.79A2.65,2.65,0,0,1,18,26a2.65,2.65,0,0,1-2.68-1.72Zm-5.9-.79H9.13L15.55,14h3.37Zm-.36.79A2.65,2.65,0,0,1,11.71,26,2.65,2.65,0,0,1,9,24.31ZM11.93,14H15L8.56,23.52H3.21ZM5.45,26a2.65,2.65,0,0,1-2.68-1.72H8.13A2.65,2.65,0,0,1,5.45,26ZM20.72,49.88V48.37H43.56v1.52Zm22.84-2H20.72V29.11H43.56ZM20.25,32.49V49.88H10.67V29.11h9.58ZM47.82,49.88H44v-21a.24.24,0,0,0-.24-.24H10.19V49.88H6.91V26.54a3.32,3.32,0,0,0,1.67-1.33,3.65,3.65,0,0,0,3.13,1.59,3.65,3.65,0,0,0,3.13-1.59A3.65,3.65,0,0,0,18,26.81a3.65,3.65,0,0,0,3.13-1.59,3.87,3.87,0,0,0,6.26,0,3.87,3.87,0,0,0,6.26,0,3.87,3.87,0,0,0,6.26,0A3.44,3.44,0,0,0,42,26.68l5.77,5.23Z" fill="#777"></path> <path d="M48.21,12.8a1.93,1.93,0,1,0,1.93,1.93A1.93,1.93,0,0,0,48.21,12.8Zm-1.43,1.93a1.43,1.43,0,1,1,1.43,1.43A1.43,1.43,0,0,1,46.78,14.73Z" fill="#777"></path> </g> </g>
</svg>
