
<svg xmlns="http://www.w3.org/2000/svg" width="41.42" height="41.42" viewBox="0 0 41.42 41.42" class="axsvgicon axsvgicon-twitter" aria-hidden="true"><path d="M14.45,26.72l.4-.23A5.35,5.35,0,0,1,11,22.92a.43.43,0,0,1,.09-.41.43.43,0,0,1,.4-.14l.29,0a5.37,5.37,0,0,1-2.52-4.54.48.48,0,0,1,.21-.4.43.43,0,0,1,.42,0,4.37,4.37,0,0,0,.62.29A5.36,5.36,0,0,1,10,11.64a.42.42,0,0,1,.33-.21.42.42,0,0,1,.36.16,13.61,13.61,0,0,0,9.31,5,5.3,5.3,0,0,1,0-.66A5.35,5.35,0,0,1,29.06,12,9.43,9.43,0,0,0,31.83,11a.43.43,0,0,1,.62.5,5.34,5.34,0,0,1-1,1.84,9.37,9.37,0,0,0,1.11-.41.43.43,0,0,1,.53.63A10.33,10.33,0,0,1,30.69,16c0,.14,0,.29,0,.43a14.76,14.76,0,0,1-1.41,6.22A27.89,27.89,0,0,0,40,10.26V4.71a3.3,3.3,0,0,0-3.29-3.29h-32A3.3,3.3,0,0,0,1.42,4.71V24.94A43.24,43.24,0,0,0,14.45,26.72Z" fill="none"></path><path d="M4.71,40h32A3.3,3.3,0,0,0,40,36.71V10.26A27.89,27.89,0,0,1,29.28,22.67a14,14,0,0,1-13,8.22,14.38,14.38,0,0,1-7.78-2.28.43.43,0,0,1-.17-.5.42.42,0,0,1,.45-.28,9.5,9.5,0,0,0,5.69-1.11,43.24,43.24,0,0,1-13-1.78V36.71A3.3,3.3,0,0,0,4.71,40Z" fill="#ccc"></path><path d="M31.47,14.16a10.39,10.39,0,0,1-1.54.3.42.42,0,0,1-.45-.28.43.43,0,0,1,.18-.5,4.51,4.51,0,0,0,1.47-1.41,10.26,10.26,0,0,1-2.13.67.42.42,0,0,1-.39-.13,4.5,4.5,0,0,0-7.67,4.1.42.42,0,0,1-.09.37.45.45,0,0,1-.35.15,14.45,14.45,0,0,1-10-4.8,4.51,4.51,0,0,0,1.67,5.45.43.43,0,0,1,.17.48.43.43,0,0,1-.42.29,5.38,5.38,0,0,1-1.74-.35,4.51,4.51,0,0,0,3.56,3.78.43.43,0,0,1,0,.83,5.55,5.55,0,0,1-1.67.18A4.5,4.5,0,0,0,16,25.79a.43.43,0,0,1,.25.76l-.14.1a10.22,10.22,0,0,1-5.68,2.09A13.53,13.53,0,0,0,16.26,30a13.17,13.17,0,0,0,11.66-6.58,13.94,13.94,0,0,0,1.93-7c0-.21,0-.41,0-.62a.43.43,0,0,1,.18-.36A9.53,9.53,0,0,0,31.47,14.16Z" fill="#fff"></path><path d="M36.71,0h-32A4.71,4.71,0,0,0,0,4.71v32a4.71,4.71,0,0,0,4.71,4.71h32a4.71,4.71,0,0,0,4.71-4.71v-32A4.71,4.71,0,0,0,36.71,0ZM1.42,4.71A3.3,3.3,0,0,1,4.71,1.42h32A3.3,3.3,0,0,1,40,4.71v32A3.3,3.3,0,0,1,36.71,40h-32a3.3,3.3,0,0,1-3.29-3.29v-32Z" fill="#777"></path><path d="M16.26,30.89a14,14,0,0,0,13-8.22,14.76,14.76,0,0,0,1.41-6.22c0-.14,0-.29,0-.43a10.33,10.33,0,0,0,2.38-2.52.43.43,0,0,0-.53-.62,9.37,9.37,0,0,1-1.11.41,5.34,5.34,0,0,0,1-1.84.43.43,0,0,0-.62-.5A9.43,9.43,0,0,1,29.06,12,5.35,5.35,0,0,0,20,15.88a5.3,5.3,0,0,0,0,.66,13.61,13.61,0,0,1-9.31-5,.42.42,0,0,0-.36-.16.42.42,0,0,0-.33.21,5.36,5.36,0,0,0,.49,6.09,4.37,4.37,0,0,1-.62-.29.43.43,0,0,0-.42,0,.48.48,0,0,0-.21.4,5.37,5.37,0,0,0,2.52,4.54l-.29,0a.43.43,0,0,0-.4.14.43.43,0,0,0-.09.41,5.35,5.35,0,0,0,3.86,3.57l-.4.23a9.5,9.5,0,0,1-5.69,1.11.42.42,0,0,0-.45.28.43.43,0,0,0,.17.5A14.38,14.38,0,0,0,16.26,30.89Zm.15-4.81a.43.43,0,0,0-.4-.29,4.5,4.5,0,0,1-3.94-2.49,5.55,5.55,0,0,0,1.67-.18.43.43,0,0,0,0-.83,4.51,4.51,0,0,1-3.56-3.78,5.38,5.38,0,0,0,1.74.35.43.43,0,0,0,.42-.29.43.43,0,0,0-.17-.48,4.51,4.51,0,0,1-1.67-5.45,14.45,14.45,0,0,0,10,4.8.45.45,0,0,0,.35-.15.42.42,0,0,0,.09-.37,4.5,4.5,0,0,1,7.67-4.1.42.42,0,0,0,.39.13,10.26,10.26,0,0,0,2.13-.67,4.51,4.51,0,0,1-1.47,1.41.43.43,0,0,0-.18.5.42.42,0,0,0,.45.28,10.39,10.39,0,0,0,1.54-.3A9.53,9.53,0,0,1,30,15.47a.43.43,0,0,0-.18.36c0,.21,0,.41,0,.62a13.94,13.94,0,0,1-1.93,7A13.17,13.17,0,0,1,16.26,30a13.53,13.53,0,0,1-5.81-1.31,10.22,10.22,0,0,0,5.68-2.09l.14-.1A.43.43,0,0,0,16.4,26.08Z" fill="#777"></path>
</svg>
